<svg viewBox="0 0 800 400" xmlns="http://www.w3.org/2000/svg">
  <defs>
    <linearGradient id="teen-sky" x1="0%" y1="0%" x2="0%" y2="100%">
      <stop offset="0%" style="stop-color:#191970;stop-opacity:1" />
      <stop offset="50%" style="stop-color:#4169E1;stop-opacity:1" />
      <stop offset="100%" style="stop-color:#87CEEB;stop-opacity:1" />
    </linearGradient>
    <linearGradient id="teen-ground" x1="0%" y1="0%" x2="0%" y2="100%">
      <stop offset="0%" style="stop-color:#708090;stop-opacity:1" />
      <stop offset="100%" style="stop-color:#2F4F4F;stop-opacity:1" />
    </linearGradient>
  </defs>
  
  <!-- Sky background -->
  <rect width="800" height="270" fill="url(#teen-sky)"/>
  
  <!-- Ground -->
  <rect y="270" width="800" height="130" fill="url(#teen-ground)"/>
  
  <!-- Sun/Moon -->
  <circle cx="650" cy="90" r="50" fill="#FFD700" opacity="0.6"/>
  
  <!-- Stars -->
  <circle cx="100" cy="50" r="3" fill="white" opacity="0.9"/>
  <circle cx="200" cy="80" r="2" fill="white" opacity="0.8"/>
  <circle cx="350" cy="60" r="2.5" fill="white" opacity="0.9"/>
  <circle cx="500" cy="40" r="2" fill="white" opacity="0.7"/>
  <circle cx="750" cy="70" r="3" fill="white" opacity="0.9"/>
  
  <!-- Modern building/high school -->
  <rect x="450" y="100" width="300" height="170" fill="#4A4A4A" stroke="#2F2F2F" stroke-width="3"/>
  
  <!-- Building windows - modern glass -->
  <rect x="470" y="120" width="40" height="50" fill="#87CEEB" opacity="0.7" stroke="#333" stroke-width="1"/>
  <rect x="520" y="120" width="40" height="50" fill="#87CEEB" opacity="0.7" stroke="#333" stroke-width="1"/>
  <rect x="570" y="120" width="40" height="50" fill="#87CEEB" opacity="0.7" stroke="#333" stroke-width="1"/>
  <rect x="620" y="120" width="40" height="50" fill="#87CEEB" opacity="0.7" stroke="#333" stroke-width="1"/>
  <rect x="670" y="120" width="40" height="50" fill="#87CEEB" opacity="0.7" stroke="#333" stroke-width="1"/>
  <rect x="720" y="120" width="40" height="50" fill="#87CEEB" opacity="0.7" stroke="#333" stroke-width="1"/>
  
  <rect x="470" y="180" width="40" height="50" fill="#FFD700" opacity="0.5" stroke="#333" stroke-width="1"/>
  <rect x="520" y="180" width="40" height="50" fill="#87CEEB" opacity="0.7" stroke="#333" stroke-width="1"/>
  <rect x="570" y="180" width="40" height="50" fill="#FFD700" opacity="0.5" stroke="#333" stroke-width="1"/>
  <rect x="620" y="180" width="40" height="50" fill="#87CEEB" opacity="0.7" stroke="#333" stroke-width="1"/>
  <rect x="670" y="180" width="40" height="50" fill="#87CEEB" opacity="0.7" stroke="#333" stroke-width="1"/>
  <rect x="720" y="180" width="40" height="50" fill="#FFD700" opacity="0.5" stroke="#333" stroke-width="1"/>
  
  <!-- Entrance -->
  <rect x="565" y="220" width="70" height="50" fill="#2F4F4F" stroke="#333" stroke-width="2"/>
  
  <!-- Urban park bench -->
  <rect x="80" y="260" width="100" height="14" rx="3" fill="#696969"/>
  <rect x="70" y="260" width="10" height="50" fill="#696969"/>
  <rect x="180" y="260" width="10" height="50" fill="#696969"/>
  
  <!-- Street lamp -->
  <rect x="350" y="180" width="8" height="120" fill="#2F2F2F"/>
  <circle cx="354" cy="175" r="18" fill="#FFD700" opacity="0.7"/>
  <circle cx="354" cy="175" r="22" fill="#FFD700" opacity="0.3"/>
  
  <!-- Skateboard ramp -->
  <path d="M 250 270 Q 280 250 310 270" fill="none" stroke="#696969" stroke-width="8"/>
  <rect x="245" y="268" width="10" height="42" fill="#696969"/>
  <rect x="305" y="268" width="10" height="42" fill="#696969"/>
  
  <!-- Teenagers -->
  <!-- Teen 1 - with skateboard -->
  <circle cx="280" cy="245" r="18" fill="#D2691E"/>
  <rect x="271" y="263" width="18" height="30" rx="3" fill="#000080"/>
  <rect x="271" y="293" width="8" height="25" fill="#696969"/>
  <rect x="281" y="293" width="8" height="25" fill="#696969"/>
  <rect x="263" y="265" width="8" height="20" fill="#D2691E"/>
  <ellipse cx="280" cy="268" rx="18" ry="22" fill="#32CD32" opacity="0.8"/>
  <rect x="260" y="270" width="40" height="6" rx="3" fill="#FF6347"/>
  <circle cx="265" cy="273" r="4" fill="#FFD700"/>
  <circle cx="295" cy="273" r="4" fill="#FFD700"/>
  
  <!-- Teen 2 - sitting on bench with phone -->
  <circle cx="130" cy="238" r="17" fill="#FDB9A3"/>
  <rect x="122" y="255" width="16" height="28" rx="3" fill="#9370DB"/>
  <rect x="125" y="283" width="10" height="20" fill="#4169E1"/>
  <rect x="135" y="245" width="12" height="18" fill="#FDB9A3"/>
  <rect x="142" y="252" width="8" height="14" fill="#333"/>
  
  <!-- Teen 3 - walking with headphones -->
  <circle cx="380" cy="265" r="18" fill="#FDB9A3"/>
  <rect x="371" y="283" width="18" height="32" rx="3" fill="#FF1493"/>
  <rect x="371" y="315" width="8" height="26" fill="#4169E1"/>
  <rect x="381" y="315" width="8" height="26" fill="#4169E1"/>
  <ellipse cx="365" cy="265" rx="8" ry="10" fill="#4169E1"/>
  <ellipse cx="395" cy="265" rx="8" ry="10" fill="#4169E1"/>
  <path d="M 365 265 Q 380 255 395 265" fill="none" stroke="#4169E1" stroke-width="3"/>
  <ellipse cx="380" cy="288" rx="16" ry="20" fill="#000" opacity="0.8"/>
  
  <!-- Teen 4 - standing group (2 friends chatting) -->
  <circle cx="200" cy="270" r="16" fill="#D2691E"/>
  <rect x="192" y="286" width="16" height="28" rx="3" fill="#228B22"/>
  <rect x="192" y="314" width="7" height="24" fill="#2F4F4F"/>
  <rect x="201" y="314" width="7" height="24" fill="#2F4F4F"/>
  
  <circle cx="240" cy="268" r="17" fill="#FDB9A3"/>
  <rect x="232" y="285" width="16" height="30" rx="3" fill="#FF6347"/>
  <rect x="232" y="315" width="7" height="25" fill="#4169E1"/>
  <rect x="241" y="315" width="7" height="25" fill="#4169E1"/>
  <ellipse cx="240" cy="290" rx="18" ry="22" fill="#FFD700" opacity="0.7"/>
  
  <!-- Urban tree -->
  <rect x="25" y="210" width="26" height="100" fill="#4A4A4A"/>
  <circle cx="38" cy="200" r="55" fill="#2E8B57" opacity="0.9"/>
  <circle cx="20" cy="185" r="45" fill="#2E8B57" opacity="0.9"/>
  <circle cx="56" cy="185" r="45" fill="#2E8B57" opacity="0.9"/>
  
  <!-- Path/sidewalk details -->
  <rect y="310" width="800" height="4" fill="#A9A9A9" opacity="0.5"/>
  <rect y="340" width="800" height="3" fill="#A9A9A9" opacity="0.5"/>
</svg>
